<svg width="637" height="87" viewBox="0 0 637 87" fill="none" xmlns="http://www.w3.org/2000/svg">
<path d="M48.776 80.68V85H0.680001V1.47999H5V80.68H48.776ZM65.3675 1.47999H69.6875V85H65.3675V1.47999ZM117.744 85H97.0081V1.47999H112.848C124.176 1.47999 132.72 3.44799 138.48 7.384C144.336 11.32 147.264 16.696 147.264 23.512C147.264 31.672 143.664 37.576 136.464 41.224C141.744 43.048 145.68 45.784 148.272 49.432C150.864 52.984 152.16 57.112 152.16 61.816C152.16 68.728 149.28 74.344 143.52 78.664C137.856 82.888 129.264 85 117.744 85ZM117.744 80.68C126.192 80.68 133.296 79.144 139.056 76.072C144.912 73 147.84 68.248 147.84 61.816C147.84 58.84 146.736 55.624 144.528 52.168C142.32 48.616 138.912 46.024 134.304 44.392L126.816 41.8L133.728 38.2C136.128 36.952 138.24 35.08 140.064 32.584C141.984 29.992 142.944 26.968 142.944 23.512C142.944 17.464 140.064 13 134.304 10.12C128.544 7.24 121.392 5.8 112.848 5.8H101.328V80.68H117.744ZM209.347 43.096L228.931 85H224.179L204.019 41.8C204.211 41.704 205.027 41.32 206.467 40.648C208.003 39.88 209.059 39.352 209.635 39.064C210.211 38.68 211.171 38.056 212.515 37.192C213.859 36.328 214.867 35.512 215.539 34.744C216.211 33.88 216.931 32.92 217.699 31.864C218.563 30.712 219.187 29.464 219.571 28.12C219.955 26.68 220.147 25.144 220.147 23.512C220.147 17.464 217.267 13 211.507 10.12C205.747 7.24 198.595 5.8 190.051 5.8H178.531V85H174.211V1.47999H190.051C201.379 1.47999 209.923 3.44799 215.683 7.384C221.539 11.32 224.467 16.696 224.467 23.512C224.467 27.928 222.979 31.864 220.003 35.32C217.027 38.68 213.475 41.272 209.347 43.096ZM256.093 80.68H303.037L273.517 11.128L242.125 85H237.517L273.517 0.0399952L309.517 85H256.093V80.68ZM361.082 43.096L380.666 85H375.914L355.754 41.8C355.946 41.704 356.762 41.32 358.202 40.648C359.738 39.88 360.794 39.352 361.37 39.064C361.946 38.68 362.906 38.056 364.25 37.192C365.594 36.328 366.602 35.512 367.274 34.744C367.946 33.88 368.666 32.92 369.434 31.864C370.298 30.712 370.922 29.464 371.306 28.12C371.69 26.68 371.882 25.144 371.882 23.512C371.882 17.464 369.002 13 363.242 10.12C357.482 7.24 350.33 5.8 341.786 5.8H330.266V85H325.946V1.47999H341.786C353.114 1.47999 361.658 3.44799 367.418 7.384C373.274 11.32 376.202 16.696 376.202 23.512C376.202 27.928 374.714 31.864 371.738 35.32C368.762 38.68 365.21 41.272 361.082 43.096ZM400.196 1.47999H404.516V85H400.196V1.47999ZM439.468 80.68H486.412L456.892 11.128L425.5 85H420.892L456.892 0.0399952L492.892 85H439.468V80.68ZM507.017 76.648H516.521V85H507.017V76.648ZM541.524 1.47999H545.844V85H541.524V1.47999ZM615.212 5.944C611.948 4.888 607.916 4.36 603.116 4.36C598.316 4.36 594.284 4.888 591.02 5.944C587.756 6.904 584.732 8.77599 581.948 11.56C579.26 14.248 577.244 18.232 575.9 23.512C574.556 28.696 573.884 35.272 573.884 43.24C573.884 51.208 574.556 57.832 575.9 63.112C577.244 68.296 579.26 72.28 581.948 75.064C584.732 77.752 587.756 79.624 591.02 80.68C594.284 81.64 598.316 82.12 603.116 82.12C607.916 82.12 611.948 81.64 615.212 80.68C618.476 79.624 621.452 77.752 624.14 75.064C626.924 72.28 628.988 68.296 630.332 63.112C631.676 57.832 632.348 51.208 632.348 43.24C632.348 35.272 631.676 28.696 630.332 23.512C628.988 18.232 626.924 14.248 624.14 11.56C621.452 8.77599 618.476 6.904 615.212 5.944ZM628.892 76.216C623.708 83.032 615.116 86.44 603.116 86.44C591.116 86.44 582.524 83.032 577.34 76.216C572.156 69.4 569.564 58.408 569.564 43.24C569.564 28.072 572.156 17.08 577.34 10.264C582.524 3.44799 591.116 0.0399952 603.116 0.0399952C615.116 0.0399952 623.708 3.44799 628.892 10.264C634.076 17.08 636.668 28.072 636.668 43.24C636.668 58.408 634.076 69.4 628.892 76.216Z" fill="black"/>
</svg>
